<svg xmlns="http://www.w3.org/2000/svg" width="820" height="380" viewBox="0 0 820 380"><rect width="820" height="380" fill="#FFF"/><text x="410.0" y="24" font-size="14" font-weight="bold" fill="#1F3864" text-anchor="middle" font-family="DejaVu Sans, Helvetica, Arial, sans-serif">Por qué fallaste, por área</text><line x1="55.0" y1="296.0" x2="790.0" y2="296.0" stroke="#EEE" stroke-width="1"/><text x="47.0" y="300.0" font-size="10" fill="#888" text-anchor="end" font-weight="normal" font-family="DejaVu Sans, Helvetica, Arial, sans-serif">0</text><line x1="55.0" y1="246.0" x2="790.0" y2="246.0" stroke="#EEE" stroke-width="1"/><text x="47.0" y="250.0" font-size="10" fill="#888" text-anchor="end" font-weight="normal" font-family="DejaVu Sans, Helvetica, Arial, sans-serif">1</text><line x1="55.0" y1="196.0" x2="790.0" y2="196.0" stroke="#EEE" stroke-width="1"/><text x="47.0" y="200.0" font-size="10" fill="#888" text-anchor="end" font-weight="normal" font-family="DejaVu Sans, Helvetica, Arial, sans-serif">1</text><line x1="55.0" y1="146.0" x2="790.0" y2="146.0" stroke="#EEE" stroke-width="1"/><text x="47.0" y="150.0" font-size="10" fill="#888" text-anchor="end" font-weight="normal" font-family="DejaVu Sans, Helvetica, Arial, sans-serif">2</text><line x1="55.0" y1="96.0" x2="790.0" y2="96.0" stroke="#EEE" stroke-width="1"/><text x="47.0" y="100.0" font-size="10" fill="#888" text-anchor="end" font-weight="normal" font-family="DejaVu Sans, Helvetica, Arial, sans-serif">2</text><line x1="55.0" y1="46.0" x2="790.0" y2="46.0" stroke="#EEE" stroke-width="1"/><text x="47.0" y="50.0" font-size="10" fill="#888" text-anchor="end" font-weight="normal" font-family="DejaVu Sans, Helvetica, Arial, sans-serif">3</text><line x1="55.0" y1="296.0" x2="790.0" y2="296.0" stroke="#999" stroke-width="1.4"/><rect x="81.5" y="46.0" width="94.1" height="250.0" fill="#1F3864" fill-opacity="1.0" rx="2"/><text x="128.5" y="311.0" font-size="9" fill="#666" text-anchor="middle" font-weight="normal" font-family="DejaVu Sans, Helvetica, Arial, sans-serif">Mecánica</text><rect x="228.5" y="129.3" width="94.1" height="166.7" fill="#1F3864" fill-opacity="1.0" rx="2"/><text x="275.5" y="311.0" font-size="9" fill="#666" text-anchor="middle" font-weight="normal" font-family="DejaVu Sans, Helvetica, Arial, sans-serif">Electromagnet.</text><rect x="375.5" y="212.7" width="94.1" height="83.3" fill="#0B6E4F" fill-opacity="1.0" rx="2"/><text x="422.5" y="311.0" font-size="9" fill="#666" text-anchor="middle" font-weight="normal" font-family="DejaVu Sans, Helvetica, Arial, sans-serif">Relatividad</text><rect x="522.5" y="129.3" width="94.1" height="166.7" fill="#1F3864" fill-opacity="1.0" rx="2"/><text x="569.5" y="311.0" font-size="9" fill="#666" text-anchor="middle" font-weight="normal" font-family="DejaVu Sans, Helvetica, Arial, sans-serif">Termo y estad.</text><rect x="669.5" y="129.3" width="94.1" height="166.7" fill="#1F3864" fill-opacity="1.0" rx="2"/><text x="716.5" y="311.0" font-size="9" fill="#666" text-anchor="middle" font-weight="normal" font-family="DejaVu Sans, Helvetica, Arial, sans-serif">Moderna y cuá.</text><rect x="24.0" y="328.0" width="18.0" height="8.0" fill="#1F3864" fill-opacity="1.0" rx="2"/><text x="48.0" y="335.0" font-size="10" fill="#444" text-anchor="start" font-weight="normal" font-family="DejaVu Sans, Helvetica, Arial, sans-serif">No sabía la física</text><rect x="286.0" y="328.0" width="18.0" height="8.0" fill="#0B6E4F" fill-opacity="1.0" rx="2"/><text x="310.0" y="335.0" font-size="10" fill="#444" text-anchor="start" font-weight="normal" font-family="DejaVu Sans, Helvetica, Arial, sans-serif">Error de cuentas</text></svg>